# xmcd
#
# Track frame offsets:
#        150
#        17580
#        32443
#        49873
#
# Disc length: 859 seconds
#
# Revision: 0
# Processed by: cddbd v1.5.1PL0 Copyright (c) Steve Scherf et al.
# Submitted via: ExactAudioCopy v0.95a3
#
DISCID=24035904
DTITLE=Miz - Waiting for
DYEAR=2004
DGENRE=JPop
TTITLE0=Waiting for
TTITLE1=Got it
TTITLE2=Waiting for (MUSIC TRACK)
TTITLE3=Got it (MUSIC TRACK)
EXTD=
EXTT0=
EXTT1=
EXTT2=
EXTT3=
PLAYORDER=
